<svg width="124" height="124" viewBox="0 0 124 124" fill="none" xmlns="http://www.w3.org/2000/svg">
<path d="M48.1495 37.2183C47.44 37.2183 46.7464 37.4287 46.1565 37.8228C45.5666 38.217 45.1068 38.7772 44.8353 39.4327C44.5638 40.0881 44.4928 40.8094 44.6312 41.5052C44.7696 42.2011 45.1112 42.8402 45.6129 43.3419C46.1146 43.8436 46.7537 44.1852 47.4496 44.3236C48.1454 44.462 48.8667 44.391 49.5222 44.1195C50.1776 43.848 50.7379 43.3882 51.1321 42.7983C51.5262 42.2084 51.7366 41.5149 51.7366 40.8054C51.7366 39.854 51.3587 38.9416 50.6859 38.2689C50.0132 37.5962 49.1008 37.2183 48.1495 37.2183V37.2183Z" fill="black"/>
<path d="M73.5055 37.2183C72.796 37.2183 72.1025 37.4287 71.5126 37.8228C70.9227 38.217 70.4629 38.7772 70.1914 39.4327C69.9199 40.0881 69.8488 40.8094 69.9873 41.5052C70.1257 42.2011 70.4673 42.8402 70.969 43.3419C71.4707 43.8436 72.1098 44.1852 72.8057 44.3236C73.5015 44.462 74.2227 44.391 74.8782 44.1195C75.5336 43.848 76.0939 43.3882 76.4881 42.7983C76.8822 42.2084 77.0926 41.5149 77.0926 40.8054C77.0926 39.854 76.7147 38.9416 76.0419 38.2689C75.3692 37.5962 74.4568 37.2183 73.5055 37.2183V37.2183Z" fill="black"/>
<path d="M108.236 67.4803L106.262 40.518H100.479V35.4667C100.475 32.6834 99.3683 30.015 97.4001 28.0469C95.432 26.0789 92.7635 24.9719 89.9802 24.9688H77.9335V23.7487C77.9335 19.2119 76.1313 14.8609 72.9233 11.6528C69.7152 8.44483 65.3642 6.64258 60.8273 6.64258C56.2905 6.64258 51.9395 8.44483 48.7315 11.6528C45.5234 14.8609 43.7212 19.2119 43.7212 23.7487V24.9688H31.6746C28.8913 24.9719 26.2229 26.0789 24.2547 28.0469C22.2866 30.015 21.1795 32.6834 21.1763 35.4667V62.5497H9.96423V71.4069H14.4406L19.8518 107.46C19.9388 110.039 21.0238 112.483 22.878 114.278C24.7321 116.073 27.2107 117.077 29.7912 117.08H48.4299C50.2816 117.078 52.0958 116.558 53.6682 115.58C55.2406 114.602 56.5087 113.204 57.3298 111.545H78.3111C78.9084 113.166 79.988 114.566 81.4046 115.556C82.8212 116.545 84.5069 117.077 86.235 117.08H105.865C108.106 117.078 110.255 116.186 111.84 114.601C113.424 113.017 114.316 110.868 114.319 108.626V79.5377L108.236 67.4803ZM52.5784 23.7487C52.5784 22.6654 52.7917 21.5928 53.2063 20.592C53.6208 19.5911 54.2284 18.6818 54.9944 17.9158C55.7604 17.1498 56.6698 16.5422 57.6706 16.1276C58.6714 15.7131 59.7441 15.4997 60.8273 15.4997C61.9106 15.4997 62.9833 15.7131 63.9841 16.1276C64.985 16.5422 65.8943 17.1498 66.6603 17.9158C67.4263 18.6818 68.0339 19.5911 68.4485 20.592C68.863 21.5928 69.0764 22.6654 69.0764 23.7487V24.9688H52.5784V23.7487ZM50.6236 107.136C50.6231 107.718 50.3918 108.275 49.9805 108.687C49.5693 109.098 49.0116 109.329 48.4299 109.33H29.7912C29.2094 109.329 28.6516 109.098 28.2401 108.687C27.8287 108.275 27.5972 107.718 27.5963 107.136V106.847L22.2769 71.4069H55.9431L50.6669 106.561L50.6236 107.136ZM77.7811 79.6253V103.794H58.9183L63.7793 71.4065H68.2568V62.5494H30.0334V35.4667C30.0339 35.0316 30.207 34.6145 30.5147 34.3069C30.8224 33.9993 31.2395 33.8263 31.6746 33.8259H89.9802C90.4153 33.8263 90.8325 33.9993 91.1402 34.3069C91.4479 34.6145 91.6209 35.0316 91.6214 35.4667V40.5176H86.2543L84.5212 67.1365L77.7811 79.6253ZM106.569 108.626C106.569 108.813 106.494 108.992 106.363 109.124C106.231 109.256 106.052 109.33 105.865 109.33H86.2354C86.0488 109.33 85.8699 109.256 85.7379 109.124C85.6059 108.992 85.5317 108.813 85.5315 108.626V81.5834L92.1462 69.3286L93.5154 48.2676H99.0588L100.62 69.5893L106.569 81.3823L106.569 108.626Z" fill="black"/>
</svg>
