<svg width="124" height="124" viewBox="0 0 124 124" fill="none" xmlns="http://www.w3.org/2000/svg">
<path d="M43.8806 23V46.4816H12.9833V89.3768C12.9893 94.6466 15.0853 99.6988 18.8117 103.425C22.538 107.151 27.5902 109.247 32.86 109.253H90.1222C95.3922 109.248 100.445 107.152 104.171 103.425C107.898 99.6991 109.994 94.6468 110 89.3768V23H43.8806ZM21.8405 89.3768V55.3388H43.8806V89.3768C43.8714 92.2935 42.7062 95.0875 40.6406 97.1466C38.5749 99.2057 35.7772 100.362 32.8606 100.362C29.9439 100.362 27.1461 99.2057 25.0804 97.1466C23.0147 95.0875 21.8497 92.2935 21.8405 89.3768V89.3768ZM101.143 89.3768C101.139 92.2985 99.977 95.0994 97.911 97.1653C95.845 99.2311 93.0439 100.393 90.1222 100.396H49.3905C51.5757 97.137 52.7408 93.3008 52.7374 89.3768V31.8571H101.142L101.143 89.3768Z" fill="black"/>
<path d="M93.4955 44.4219H59.8433V53.279H93.4955V44.4219Z" fill="black"/>
<path d="M93.4955 61.698H59.8433V70.5551H93.4955V61.698Z" fill="black"/>
<path d="M93.4955 78.9746H59.8433V87.8318H93.4955V78.9746Z" fill="black"/>
</svg>
