<svg width="124" height="124" viewBox="0 0 124 124" fill="none" xmlns="http://www.w3.org/2000/svg">
<path d="M56.9448 69.0386C56.9448 68.0109 56.5365 67.0252 55.8098 66.2985C55.0831 65.5718 54.0975 65.1636 53.0698 65.1636H8.30371C7.276 65.1636 6.29033 65.5718 5.56363 66.2985C4.83692 67.0252 4.42871 68.0109 4.42871 69.0386C4.42871 70.0663 4.83692 71.0519 5.56363 71.7786C6.29033 72.5053 7.276 72.9136 8.30371 72.9136H53.0698C54.0975 72.9136 55.0831 72.5053 55.8098 71.7786C56.5365 71.0519 56.9448 70.0663 56.9448 69.0386V69.0386Z" fill="black"/>
<path d="M77.0273 21.2901V15.4997H84.5849V6.64258H61.7208V15.4997H69.2773V21.2815C60.6868 21.9828 52.4439 24.9851 45.4146 29.9728C38.3853 34.9606 32.8293 41.7496 29.3304 49.6265C29.2335 49.8549 29.1561 50.0911 29.0988 50.3325H14.9463C13.9186 50.3325 12.9329 50.7408 12.2062 51.4675C11.4795 52.1942 11.0713 53.1798 11.0713 54.2075C11.0713 55.2353 11.4795 56.2209 12.2062 56.9476C12.9329 57.6743 13.9186 58.0825 14.9463 58.0825H41.9981C43.0258 58.0825 44.0114 57.6743 44.7381 56.9476C45.4648 56.2209 45.8731 55.2353 45.8731 54.2075C45.8731 53.1798 45.4648 52.1942 44.7381 51.4675C44.0114 50.7408 43.0258 50.3325 41.9981 50.3325H38.864C43.0215 42.7148 49.5977 36.6987 57.5545 33.234C65.5114 29.7693 74.3955 29.0534 82.8045 31.1994C91.2134 33.3453 98.6681 38.2308 103.992 45.0845C109.315 51.9383 112.205 60.37 112.203 69.0484C112.202 77.7268 109.31 86.1577 103.985 93.0099C98.6593 99.8622 91.2033 104.746 82.7937 106.889C74.3842 109.033 65.5002 108.314 57.5444 104.847C49.5885 101.38 43.014 95.3624 38.8587 87.7434H46.4267C47.4544 87.7434 48.44 87.3352 49.1667 86.6085C49.8934 85.8818 50.3017 84.8961 50.3017 83.8684C50.3017 82.8407 49.8934 81.8551 49.1667 81.1284C48.44 80.4017 47.4544 79.9934 46.4267 79.9934H25.8549C24.8271 79.9934 23.8415 80.4017 23.1148 81.1284C22.3881 81.8551 21.9799 82.8407 21.9799 83.8684C21.9799 84.8961 22.3881 85.8818 23.1148 86.6085C23.8415 87.3352 24.8271 87.7434 25.8549 87.7434H29.2538C29.3022 88.1984 29.4214 88.6429 29.6073 89.0609C33.1296 96.7263 38.6129 103.326 45.5032 108.193C52.3935 113.06 60.4465 116.022 68.8483 116.779C77.2502 117.537 85.703 116.063 93.3526 112.506C101.002 108.95 107.577 103.437 112.414 96.5253C117.25 89.6134 120.176 81.5472 120.896 73.1421C121.616 64.737 120.104 56.2908 116.514 48.6571C112.923 41.0235 107.381 34.4729 100.448 29.6674C93.5147 24.8619 85.4357 21.9719 77.0274 21.2894L77.0273 21.2901Z" fill="black"/>
<path d="M69.3206 38.262V72.9133H103.973V65.1633H77.0706V38.262H69.3206Z" fill="black"/>
</svg>
