<svg fill="none" height="30" viewBox="0 0 91 30" width="91" xmlns="http://www.w3.org/2000/svg"><g fill="#fff"><path d="m62.9363 7.39392v8.82668c0 2.2818-.7252 3.6438-2.441 3.6438-1.6981 0-2.441-1.362-2.441-3.6438v-8.82668h-4.8467v9.16278c0 4.7936 2.9186 6.7747 7.2877 6.7747 3.6085 0 7.2877-1.9811 7.2877-6.7747v-9.16278z"/><path d="m25.9846 7.04004c-5.0059 0-8.3313 3.23706-8.3313 8.26066 0 5.0412 3.52 8.0306 8.0483 8.0306 4.1745 0 8.2252-2.6002 8.2252-8.296 0-4.7052-3.1662-7.99526-7.9422-7.99526zm-.1415 12.84196c-2.0696 0-3.1839-2.0165-3.1839-4.6875 0-2.3172.8844-4.6875 3.2016-4.6875 2.1934 0 3.0778 2.3703 3.0778 4.6698 0 2.8125-1.2028 4.7052-3.0955 4.7052z"/><path d="m14.204 6.29712c-1.6273 1.11439-2.0519 2.8125-2.0519 2.8125-.8844-1.11439-2.70635-1.99882-4.84668-1.99882-3.57311 0-7.30542 3.184-7.30542 8.2075 0 4.4576 3.14858 7.8892 7.30542 7.8892 1.71581 0 2.88328-.4245 3.80308-1.3443v.336c0 2.8302-1.75119 4.1038-4.05072 4.1038-2.24646 0-3.83844-.7429-4.82901-1.3089l-.95519 3.6792c1.29128.6722 3.85614 1.3266 5.90802 1.3266 2.29953 0 4.6167-.4422 6.3149-1.9103 1.7688-1.5566 2.3702-4.0154 2.3702-7.0047v-6.8986c.0354-2.388.8845-4.0684 1.9281-5.25357zm-6.01414 13.63798c-2.06958 0-3.18396-2.0165-3.18396-4.6875 0-2.3172.88443-4.6875 3.20165-4.6875 2.17575.0177 3.06015 2.3703 3.06015 4.6698 0 2.8125-1.1852 4.7052-3.07784 4.7052z"/><path d="m43.5672 7.04004c-5.2004 0-8.0306 3.44926-8.0306 8.54366v14.0802h4.8467v-7.7123c.8667.9021 2.2464 1.3974 4.1037 1.3974 3.467 0 7.0932-2.671 7.0932-8.3491 0-4.9882-3.2901-7.95986-8.013-7.95986zm-.0177 12.84196c-2.0695 0-3.1839-2.0165-3.1839-4.6875 0-2.3172.8844-4.6875 3.2016-4.6875 2.1934 0 3.0779 2.3703 3.0779 4.6698-.0177 2.8125-1.2029 4.7052-3.0956 4.7052z"/><path d="m90.5 4.0684v-3.714626c-.6722-.194576-1.5035-.3360853-2.5649-.3360853-1.4151 0-3.0955.4068393-4.316 1.5566013-1.3797 1.29128-1.9634 3.36085-1.9634 5.21816v.58373h-5.0059v-.79599c-.0708-3.76769 3.6085-2.67099 4.033-2.52948v-3.714625c-.6722-.194576-1.5036-.336085-2.5649-.336085-1.4151 0-3.0955.40684-4.316 1.5566-1.3797 1.29128-1.9635 3.36085-1.9635 5.21816v.58373h-2.0695v3.57311h2.0695v12.046c0 3.3078-2.2995 2.8302-3.3254 2.671l-.513 3.5731c.4953.1946 1.2736.3891 2.0696.3891 2.1934.0177 3.75-.6544 4.7936-1.6804 1.309-1.2912 1.8043-3.1486 1.8043-4.9882l.0353-12.0106h4.9705v12.046c.0708 3.4847-2.6533 2.7771-3.3254 2.671l-.513 3.5731c.4953.1946 1.2736.3891 2.0696.3891 2.1934.0177 3.75-.6544 4.7936-1.6804 1.309-1.2912 1.8043-3.1486 1.8043-4.9882l.0353-12.0106h3.98v-3.53773h-4.033v-.79599c.053-3.80307 3.5908-2.6533 4.0153-2.52948z"/></g></svg>