<svg fill="none" height="24" viewBox="0 0 24 24" width="24" xmlns="http://www.w3.org/2000/svg"><path clip-rule="evenodd" d="m10.5 3.04987c4.1421 0 7.5 3.35786 7.5 7.50003 0 1.6475-.5312 3.171-1.4317 4.4084l4.3865 4.3866-1.4158 1.4158-4.3539-4.3539c-1.2836 1.0281-2.9125 1.6431-4.6851 1.6431-4.14214 0-7.5-3.3579-7.5-7.5 0-4.14217 3.35786-7.50003 7.5-7.50003zm0 2c-3.03757 0-5.5 2.46243-5.5 5.50003 0 3.0375 2.46243 5.5 5.5 5.5 3.0376 0 5.5-2.4625 5.5-5.5 0-3.0376-2.4624-5.50003-5.5-5.50003z" fill="#00a4ff" fill-rule="evenodd"/></svg>