<svg width="26" height="22" fill="none" xmlns="http://www.w3.org/2000/svg"><g filter="url(#filter0_d)"><g clip-path="url(#clip0)"><mask id="a" style="mask-type:alpha" maskUnits="userSpaceOnUse" x="3" y="1" width="20" height="16"><path fill="#fff" d="M3 1.5h20v15H3z"/></mask><g mask="url(#a)"><path fill-rule="evenodd" clip-rule="evenodd" d="M3 1.5v15h20v-15H3z" fill="#FFB400"/><mask id="b" style="mask-type:alpha" maskUnits="userSpaceOnUse" x="3" y="1" width="20" height="16"><path fill-rule="evenodd" clip-rule="evenodd" d="M3 1.5v15h20v-15H3z" fill="#fff"/></mask><g mask="url(#b)"><path fill-rule="evenodd" clip-rule="evenodd" d="M3 1.5v3.75h20V1.5H3zM3 12.75v3.75h20v-3.75H3z" fill="#C51918"/><path fill="#F1F9FF" d="M6.13 7.92h.7v3.64h-.7z"/><path fill-rule="evenodd" clip-rule="evenodd" d="M7.11 7.29H5.85v.35h.21v.28h.84v-.28h.21v-.35zM6.9 11.77h.21v.35H5.85v-.35h.21v-.28h.84v.28z" fill="#C88A02"/><path fill-rule="evenodd" clip-rule="evenodd" d="M6.48 7.36c.152 0 .168-.057.258-.143.07-.066.232-.149.232-.242 0-.213-.22-.385-.49-.385s-.49.172-.49.385c0 .104.112.173.197.242.089.073.154.143.293.143z" fill="#AD1619"/><path fill-rule="evenodd" clip-rule="evenodd" d="M5.85 12.12h1.26v.56s-.158-.07-.315-.07c-.158 0-.315.07-.315.07s-.158-.07-.315-.07c-.158 0-.315.07-.315.07v-.56z" fill="#005BBF"/><mask id="c" style="mask-type:alpha" maskUnits="userSpaceOnUse" x="5" y="12" width="3" height="1"><path fill-rule="evenodd" clip-rule="evenodd" d="M5.85 12.12h1.26v.56s-.158-.07-.315-.07c-.158 0-.315.07-.315.07s-.158-.07-.315-.07c-.158 0-.315.07-.315.07v-.56z" fill="#fff"/></mask><g mask="url(#c)" fill="#fff"><path d="M5.839 12.57l-.028-.067a.834.834 0 01.342-.076.37.37 0 01.177.04.306.306 0 00.15.033.306.306 0 00.15-.033.37.37 0 01.178-.04c.114 0 .228.026.341.076l-.027.067a.767.767 0 00-.314-.07.306.306 0 00-.15.034.37.37 0 01-.178.04.37.37 0 01-.177-.04.306.306 0 00-.15-.034.767.767 0 00-.314.07zM5.839 12.36l-.028-.067a.834.834 0 01.342-.076.37.37 0 01.177.04.307.307 0 00.15.033.307.307 0 00.15-.033.37.37 0 01.178-.04c.114 0 .228.026.341.076l-.027.067a.767.767 0 00-.314-.07.307.307 0 00-.15.034.37.37 0 01-.178.04.37.37 0 01-.177-.04.307.307 0 00-.15-.034.767.767 0 00-.314.07z"/></g><path fill="#F1F9FF" d="M12.99 7.92h.7v3.64h-.7z"/><path fill-rule="evenodd" clip-rule="evenodd" d="M13.97 7.29h-1.26v.35h.21v.28h.84v-.28h.21v-.35zM13.76 11.77h.21v.35h-1.26v-.35h.21v-.28h.84v.28z" fill="#C88A02"/><path fill-rule="evenodd" clip-rule="evenodd" d="M13.34 7.36c.152 0 .168-.057.258-.143.07-.066.232-.149.232-.242 0-.213-.22-.385-.49-.385s-.49.172-.49.385c0 .104.112.173.197.242.089.073.154.143.293.143z" fill="#AD1619"/><path fill-rule="evenodd" clip-rule="evenodd" d="M12.71 12.12h1.26v.56s-.158-.07-.315-.07-.315.07-.315.07-.158-.07-.315-.07c-.158 0-.315.07-.315.07v-.56z" fill="#005BBF"/><mask id="d" style="mask-type:alpha" maskUnits="userSpaceOnUse" x="12" y="12" width="2" height="1"><path fill-rule="evenodd" clip-rule="evenodd" d="M12.71 12.12h1.26v.56s-.158-.07-.315-.07-.315.07-.315.07-.158-.07-.315-.07c-.158 0-.315.07-.315.07v-.56z" fill="#fff"/></mask><g mask="url(#d)" fill="#fff"><path d="M12.699 12.57l-.028-.067a.834.834 0 01.342-.076.37.37 0 01.177.04.306.306 0 00.15.033.307.307 0 00.15-.033.37.37 0 01.178-.04c.114 0 .228.026.341.076l-.027.067a.766.766 0 00-.314-.07.306.306 0 00-.15.034.371.371 0 01-.178.04.37.37 0 01-.177-.04.307.307 0 00-.15-.034.767.767 0 00-.314.07zM12.699 12.36l-.028-.067a.834.834 0 01.342-.076.37.37 0 01.177.04.307.307 0 00.15.033.308.308 0 00.15-.033.37.37 0 01.178-.04c.114 0 .228.026.341.076l-.027.067a.767.767 0 00-.314-.07.307.307 0 00-.15.034.371.371 0 01-.178.04.37.37 0 01-.177-.04.308.308 0 00-.15-.034.767.767 0 00-.314.07z"/></g><path fill-rule="evenodd" clip-rule="evenodd" d="M6.117 11.3c.127-.153.197-.292.197-.44a.395.395 0 00-.076-.24l.008-.003s.139-.06.187-.084c.09-.043.17-.089.247-.145.05-.036.115-.075.216-.13l.095-.05.026-.013.12-.066a.756.756 0 00.228-.18.335.335 0 00-.077-.499c-.087-.06-.204-.093-.376-.12l-.035-.005-.21-.033a13.226 13.226 0 01-.222-.036c.43-.072 1.045-.046 1.316.094l.256-.498c-.55-.284-1.806-.255-2.274.068-.344.237-.298.595.06.749.15.064.344.107.705.165-.06.035-.11.067-.157.101a1 1 0 01-.16.093l-.157.07-.02.009c-.291.132-.433.316-.39.647l.023.179.04.012.43.355zm-.36-.463v.003-.003zm7.684.023c0 .148.07.287.197.44l.43-.355.04-.012.024-.18c.042-.33-.1-.514-.39-.646l-.02-.009h-.001a8.334 8.334 0 01-.156-.07 1.005 1.005 0 01-.16-.093 1.78 1.78 0 00-.157-.101c.36-.058.555-.1.705-.165.357-.154.404-.512.06-.75-.469-.322-1.724-.351-2.275-.067l.257.498c.27-.14.885-.166 1.315-.094a13.42 13.42 0 01-.22.036l-.211.033-.036.005c-.172.027-.289.06-.376.12a.335.335 0 00-.077.499.756.756 0 00.23.18c.033.02.07.04.119.066l.025.013.095.05c.101.055.167.094.217.13.077.056.156.102.246.145l.187.084.009.003a.395.395 0 00-.077.24z" fill="#AD1619"/><path d="M6.702 9.25l.207.043V9.6c-.22.175-.779.471-.779.471V9.25h.572zM13.197 9.25l-.207.043V9.6c.22.175.779.471.779.471V9.25h-.572z" fill="#F1F9FF"/><path fill-rule="evenodd" clip-rule="evenodd" d="M12.235 6.004V5.9c-.36-.258-.737-.387-1.131-.387a2.258 2.258 0 00-1.147-.195v-.002c-.582-.057-1.168.197-1.168.197-.591 0-1.132.387-1.132.387v.103l.706.709s.2.682 1.591.522v.002s.921-.026.986-.047c.026-.009.053-.016.08-.024.18-.053.386-.113.509-.453l.706-.71zM9.954 5.35c-.02.236-.135 1.66 0 1.88V5.35z" fill="#AD1619"/><path fill-rule="evenodd" clip-rule="evenodd" d="M8.196 6.594V6.59L7.7 6.124l.048-.05.466.438.012-.055a.593.593 0 00.164.019v-.095l.104.056c.05.027.123.035.219.02.07-.012.118-.094.133-.268l.032-.352.105.337c.048.153.12.22.224.22.1 0 .141-.037.146-.13l.012-.265.12.236c.043.085.103.124.187.124.121 0 .202-.1.202-.259H10.016c0 .158.08.259.202.259.084 0 .144-.039.187-.124l.12-.236.012.264c.005.094.045.13.146.13.104 0 .176-.066.224-.219l.105-.337.031.352c.016.174.063.256.134.267.096.016.168.008.22-.02l.103-.055v.095a.593.593 0 00.164-.02l.022.103.516-.486.048.051-.642.604c-.094.173-.14.287-.14.334 0 .072-.189.115-.555.159a9.023 9.023 0 01-.903.06v.001h-.07a9.024 9.024 0 01-.903-.061c-.367-.044-.554-.087-.554-.16a.147.147 0 00-.005-.033.55.55 0 01-.08-.194 3.53 3.53 0 00-.056-.106L8.2 6.594h-.004zm3.441.01c-.115.021-.197.02-.241-.017a.55.55 0 01-.242.007c-.098-.016-.166-.081-.208-.19a.32.32 0 01-.203.125c.448.063.762.153.762.153s-.008.066-.027.144l.071-.136.007-.009.081-.076zm-1.105-.102a.225.225 0 01-.093-.083.312.312 0 01-.113.064c.07.005.14.012.206.02zm-.453-.033a.32.32 0 01-.134-.117.32.32 0 01-.133.117l.097-.002h.056l.114.002zm-1.69.207l-.065-.061c.078.008.136 0 .17-.028a.55.55 0 00.242.007c.098-.016.166-.081.207-.19a.321.321 0 00.197.124 6.548 6.548 0 00-.751.148zm1.172-.194a6.247 6.247 0 00-.199.018.224.224 0 00.089-.081c.032.028.07.05.11.063zm1.722.581c.05.023.088 0 .12-.044a.228.228 0 00-.005.033.678.678 0 01-.123.04c-.09.02-.218.041-.37.06-.297.035-.65.058-.93.06a8.867 8.867 0 01-.93-.06 3.83 3.83 0 01-.37-.06.787.787 0 01-.092-.026.113.113 0 00.008-.003c.153-.071 1.164-.138 1.346-.15.182.012 1.193.079 1.346.15zm.193-.013l-.001.002V7.05h.001z" fill="#C88A02"/><path fill-rule="evenodd" clip-rule="evenodd" d="M9.945 4.842a.21.21 0 100-.42.21.21 0 000 .42z" fill="#005BBF"/><path fill-rule="evenodd" clip-rule="evenodd" d="M9.809 5.873a.278.278 0 00.02.064.265.265 0 00-.094-.017c-.097 0-.175.047-.175.105 0 .058.078.105.175.105.097 0 .175-.047.175-.105 0 .058.078.105.175.105.097 0 .175-.047.175-.105 0-.058-.078-.105-.175-.105a.278.278 0 00-.069.009.263.263 0 00-.001-.096c-.019-.095-.08-.163-.137-.152-.057.011-.088.097-.07.192zm.101.152v-.003.003zm-1.131-.018a.278.278 0 01-.02-.064c-.019-.095.012-.18.07-.192.056-.011.117.057.136.152a.265.265 0 01.001.096.278.278 0 01.069-.009c.097 0 .175.047.175.105 0 .058-.078.105-.175.105-.097 0-.175-.047-.175-.105v-.003.003c0 .058-.078.105-.175.105-.097 0-.175-.047-.175-.105 0-.058.078-.105.175-.105.034 0 .067.006.094.017zm2.192.064c-.008.057-.092.093-.188.08-.095-.014-.166-.072-.158-.13.008-.057.092-.092.188-.079a.266.266 0 01.09.03.277.277 0 01-.011-.066c-.005-.097.038-.178.096-.18.058-.004.109.072.114.169a.264.264 0 01-.012.095.279.279 0 01.07 0c.095.014.166.072.158.13-.008.057-.092.092-.188.079-.096-.014-.167-.071-.159-.128zm0 0v-.004.004zm.667.277c.085.046.176.04.204-.01v-.003a.068.068 0 00.03.019c.056.017.124-.045.152-.137.029-.092.006-.181-.049-.198-.056-.017-.123.044-.152.137a.273.273 0 00-.011.065.265.265 0 00-.076-.058c-.085-.046-.176-.04-.204.01-.027.052.02.13.106.175zm-3.435.022c-.085.045-.177.04-.204-.01l-.001-.004a.068.068 0 01-.03.02c-.055.016-.123-.045-.152-.138-.028-.092-.006-.18.05-.198.055-.017.123.045.151.137a.28.28 0 01.012.066.265.265 0 01.075-.059c.086-.045.177-.04.204.01.027.052-.02.13-.105.176zM9.867 4.048h.146v.092h.095v.146h-.095v.291h.095v.146H9.77v-.146h.097v-.291H9.77V4.14h.097v-.092z" fill="#C88A02"/><path fill="#C88A02" d="M9.84 4.84h.28v.91h-.28z"/><path d="M8.713 4.992l-.001.07c-.621-.01-.977.08-1.067.26-.094.187-.077.414.054.684l-.063.03c-.14-.287-.158-.536-.054-.745.107-.214.484-.31 1.13-.299z" fill="#fff"/><path d="M8.833 5.613l-.036.06c-.135-.08-.203-.218-.203-.408 0-.273.14-.433.452-.542.198-.07.469-.042.813.083l-.023.066c-.331-.12-.587-.147-.767-.083-.285.1-.405.236-.405.476 0 .166.056.28.169.348z" fill="#fff"/><path d="M7.788 5.898l-.133.047c-.137-.39-.097-.655.137-.77.206-.1.507-.142.903-.125l-.005.14c-.376-.016-.655.022-.837.111-.154.075-.182.266-.065.597z" fill="#C88A02"/><path d="M9.33 4.899c-.32 0-.45.078-.526.308-.048.147-.001.272.15.389l-.087.11c-.194-.15-.263-.336-.196-.542.096-.294.284-.405.66-.405.246 0 .439.065.572.197l.021.02v.675h-.14v-.615c-.104-.09-.254-.137-.453-.137z" fill="#C88A02"/><path d="M11.156 5.062v.07c.621-.01.978.08 1.068.26.093.187.076.414-.055.683l.063.031c.14-.287.159-.537.055-.745-.108-.214-.484-.31-1.131-.299z" fill="#fff"/><path d="M10.937 5.628l.035.06c.136-.081.203-.219.203-.409 0-.272-.14-.432-.451-.542-.199-.07-.47-.041-.814.084l.024.066c.33-.12.586-.147.767-.084.285.1.404.237.404.476 0 .167-.056.281-.168.349z" fill="#fff"/><path d="M12.124 5.968l.133.047c.137-.39.098-.656-.137-.77-.206-.1-.507-.142-.903-.126l.005.14c.376-.015.655.023.837.112.154.075.182.266.066.597z" fill="#C88A02"/><path d="M10.573 4.91c.32 0 .452.078.527.308.048.147.001.272-.15.389l.087.11c.195-.151.263-.336.196-.543-.096-.293-.284-.404-.66-.404-.246 0-.438.065-.572.196l-.021.021v.675h.14v-.615c.104-.09.255-.137.453-.137z" fill="#C88A02"/><path opacity=".3" fill-rule="evenodd" clip-rule="evenodd" d="M7.67 7.29h4.55v4.088s-.338 1.372-2.275 1.372c-1.937 0-2.275-1.408-2.275-1.408V7.29z" fill="#E1E5E8"/><mask id="e" style="mask-type:alpha" maskUnits="userSpaceOnUse" x="7" y="7" width="6" height="6"><path fill-rule="evenodd" clip-rule="evenodd" d="M7.67 7.29h4.55v4.088s-.338 1.372-2.275 1.372c-1.937 0-2.275-1.408-2.275-1.408V7.29z" fill="#fff"/></mask><g mask="url(#e)"><path fill="#FFC034" d="M7.67 9.81h2.31v2.73H7.67z"/><path fill="#AD1619" d="M7.95 9.95h.28v2.59h-.28zM8.93 9.95h.28v2.59h-.28zM8.44 9.95h.28v2.59h-.28zM9.42 9.95h.28v2.59h-.28zM7.67 7.22h2.31v2.66H7.67z"/><path fill="#AD1619" d="M9.91 9.74h2.31v2.66H9.91z"/><path fill="#F1F9FF" d="M9.91 7.29h2.45v2.59H9.91z"/><path fill-rule="evenodd" clip-rule="evenodd" d="M8.65 7.5h.21v.58H9v-.29h.21v.29h.21v.364h-.21v.653h.21v.363H8.16v-.363h.21v-.653h-.21V8.08h.14v-.29h.21v.29h.14V7.5z" fill="#C88A02"/><path d="M11.112 7.622l.143-.153.301.28-.143.154-.301-.281z" fill="#C88A02"/><path fill-rule="evenodd" clip-rule="evenodd" d="M11.975 11.588v-1.533h-1.75v1.52l.003.011c.088.378.39.569.872.569s.783-.186.872-.555l.003-.012zm-.875.357c-.387 0-.598-.13-.665-.395v-1.285h1.33v1.297c-.067.256-.278.383-.665.383z" fill="#FFC034"/><path fill-rule="evenodd" clip-rule="evenodd" d="M11.172 10.183h-.146v.695l-.575-.625-.103.094.52.566h-.47v.21h.481l-.53.578.102.095.575-.626v.812h.146v-.739l.508.553.103-.095-.531-.578h.593v-.21h-.582l.52-.566-.103-.094-.508.552v-.622z" fill="#FFC034"/><path fill-rule="evenodd" clip-rule="evenodd" d="M11.427 12.402s-1.483.116-1.483-.84c0 0-.014.84-1.562.84v.755h3.045v-.755z" fill="#F1F9FF"/><path fill-rule="evenodd" clip-rule="evenodd" d="M9.945 10.37c.29 0 .525-.25.525-.56 0-.31-.235-.56-.525-.56-.29 0-.525.25-.525.56 0 .31.235.56.525.56z" fill="#005BBF" stroke="#AD1619" stroke-width=".729"/></g></g></g><path fill="url(#paint0_linear)" style="mix-blend-mode:overlay" d="M3 1.5h20v15H3z"/></g><path d="M4.5 2.5h17v-2h-17v2zM22 3v12h2V3h-2zm-.5 12.5h-17v2h17v-2zM4 15V3H2v12h2zm.5.5A.5.5 0 014 15H2a2.5 2.5 0 002.5 2.5v-2zM22 15a.5.5 0 01-.5.5v2A2.5 2.5 0 0024 15h-2zm-.5-12.5a.5.5 0 01.5.5h2A2.5 2.5 0 0021.5.5v2zm-17-2A2.5 2.5 0 002 3h2a.5.5 0 01.5-.5v-2z" fill="#000" fill-opacity=".1" style="mix-blend-mode:multiply"/></g><defs><linearGradient id="paint0_linear" x1="13" y1="1.5" x2="13" y2="16.5" gradientUnits="userSpaceOnUse"><stop stop-color="#fff" stop-opacity=".7"/><stop offset="1" stop-opacity=".3"/></linearGradient><clipPath id="clip0"><path d="M3 3a1.5 1.5 0 011.5-1.5h17A1.5 1.5 0 0123 3v12a1.5 1.5 0 01-1.5 1.5h-17A1.5 1.5 0 013 15V3z" fill="#fff"/></clipPath><filter id="filter0_d" x="0" y=".5" width="26" height="21" filterUnits="userSpaceOnUse" color-interpolation-filters="sRGB"><feFlood flood-opacity="0" result="BackgroundImageFix"/><feColorMatrix in="SourceAlpha" type="matrix" values="0 0 0 0 0 0 0 0 0 0 0 0 0 0 0 0 0 0 127 0" result="hardAlpha"/><feOffset dy="2"/><feGaussianBlur stdDeviation="1.5"/><feColorMatrix type="matrix" values="0 0 0 0 0 0 0 0 0 0 0 0 0 0 0 0 0 0 0.1 0"/><feBlend mode="normal" in2="BackgroundImageFix" result="effect1_dropShadow"/><feBlend mode="normal" in="SourceGraphic" in2="effect1_dropShadow" result="shape"/></filter></defs></svg>
