<svg width="26" height="22" fill="none" xmlns="http://www.w3.org/2000/svg"><g filter="url(#filter0_d)"><g clip-path="url(#clip0)"><mask id="a" style="mask-type:alpha" maskUnits="userSpaceOnUse" x="3" y="1" width="20" height="16"><path fill="#fff" d="M3 1.5h20v15H3z"/></mask><g mask="url(#a)"><path fill-rule="evenodd" clip-rule="evenodd" d="M3 1.5v15h20v-15H3z" fill="#2E42A5"/><mask id="b" style="mask-type:alpha" maskUnits="userSpaceOnUse" x="3" y="1" width="20" height="16"><path fill-rule="evenodd" clip-rule="evenodd" d="M3 1.5v15h20v-15H3z" fill="#fff"/></mask><g mask="url(#b)"><mask id="c" style="mask-type:alpha" maskUnits="userSpaceOnUse" x="3" y="1" width="20" height="16"><path fill="#fff" d="M3 1.5h20v15H3z"/></mask><g mask="url(#c)"><path d="M.773 15.428l4.401 1.862L23.1 3.524 25.42.758 20.715.136l-7.312 5.932-5.885 3.997-6.745 5.363z" fill="#fff"/><path d="M1.376 16.733l2.242 1.08L24.588.5h-3.149L1.377 16.733z" fill="#F50100"/><path d="M25.227 15.428l-4.401 1.862L2.9 3.524.58.758 5.285.136l7.311 5.932 5.885 3.997 6.746 5.363z" fill="#fff"/><path d="M25.077 16.364l-2.242 1.08-8.93-7.412-2.647-.828L.355.767h3.149L14.4 9.004l2.894.993 7.783 6.367z" fill="#F50100"/><mask id="d" fill="#fff"><path fill-rule="evenodd" clip-rule="evenodd" d="M15.361.25H10.64V6.5H1.767v5h8.872v6.25h4.722V11.5h8.906v-5h-8.906V.25z"/></mask><path fill-rule="evenodd" clip-rule="evenodd" d="M15.361.25H10.64V6.5H1.767v5h8.872v6.25h4.722V11.5h8.906v-5h-8.906V.25z" fill="#F50100"/><path d="M10.639.25V-1h-1.25V.25h1.25zm4.722 0h1.25V-1h-1.25V.25zM10.64 6.5v1.25h1.25V6.5h-1.25zm-8.872 0V5.25H.517V6.5h1.25zm0 5H.517v1.25h1.25V11.5zm8.872 0h1.25v-1.25h-1.25v1.25zm0 6.25h-1.25V19h1.25v-1.25zm4.722 0V19h1.25v-1.25h-1.25zm0-6.25v-1.25h-1.25v1.25h1.25zm8.906 0v1.25h1.25V11.5h-1.25zm0-5h1.25V5.25h-1.25V6.5zm-8.906 0h-1.25v1.25h1.25V6.5zm-4.722-5h4.722V-1H10.64v2.5zm1.25 5V.25h-2.5V6.5h2.5zM1.767 7.75h8.872v-2.5H1.767v2.5zm1.25 3.75v-5h-2.5v5h2.5zm7.622-1.25H1.767v2.5h8.872v-2.5zm1.25 7.5V11.5h-2.5v6.25h2.5zm3.472-1.25H10.64V19h4.722v-2.5zm-1.25-5v6.25h2.5V11.5h-2.5zm10.156-1.25h-8.906v2.5h8.906v-2.5zm-1.25-3.75v5h2.5v-5h-2.5zm-7.656 1.25h8.906v-2.5h-8.906v2.5zm-1.25-7.5V6.5h2.5V.25h-2.5z" fill="#fff" mask="url(#d)"/></g></g></g><path fill="url(#paint0_linear)" style="mix-blend-mode:overlay" d="M3 1.5h20v15H3z"/></g><path d="M4.5 2.5h17v-2h-17v2zM22 3v12h2V3h-2zm-.5 12.5h-17v2h17v-2zM4 15V3H2v12h2zm.5.5A.5.5 0 014 15H2a2.5 2.5 0 002.5 2.5v-2zM22 15a.5.5 0 01-.5.5v2A2.5 2.5 0 0024 15h-2zm-.5-12.5a.5.5 0 01.5.5h2A2.5 2.5 0 0021.5.5v2zm-17-2A2.5 2.5 0 002 3h2a.5.5 0 01.5-.5v-2z" fill="#000" fill-opacity=".1" style="mix-blend-mode:multiply"/></g><defs><linearGradient id="paint0_linear" x1="13" y1="1.5" x2="13" y2="16.5" gradientUnits="userSpaceOnUse"><stop stop-color="#fff" stop-opacity=".7"/><stop offset="1" stop-opacity=".3"/></linearGradient><clipPath id="clip0"><path d="M3 3a1.5 1.5 0 011.5-1.5h17A1.5 1.5 0 0123 3v12a1.5 1.5 0 01-1.5 1.5h-17A1.5 1.5 0 013 15V3z" fill="#fff"/></clipPath><filter id="filter0_d" x="0" y=".5" width="26" height="21" filterUnits="userSpaceOnUse" color-interpolation-filters="sRGB"><feFlood flood-opacity="0" result="BackgroundImageFix"/><feColorMatrix in="SourceAlpha" type="matrix" values="0 0 0 0 0 0 0 0 0 0 0 0 0 0 0 0 0 0 127 0" result="hardAlpha"/><feOffset dy="2"/><feGaussianBlur stdDeviation="1.5"/><feColorMatrix type="matrix" values="0 0 0 0 0 0 0 0 0 0 0 0 0 0 0 0 0 0 0.1 0"/><feBlend mode="normal" in2="BackgroundImageFix" result="effect1_dropShadow"/><feBlend mode="normal" in="SourceGraphic" in2="effect1_dropShadow" result="shape"/></filter></defs></svg>
