<svg width="26" height="22" fill="none" xmlns="http://www.w3.org/2000/svg"><g filter="url(#filter0_d)"><g clip-path="url(#clip0)"><mask id="a" style="mask-type:alpha" maskUnits="userSpaceOnUse" x="3" y="1" width="20" height="16"><path fill="#fff" d="M3 1.5h20v15H3z"/></mask><g mask="url(#a)"><path fill-rule="evenodd" clip-rule="evenodd" d="M3 1.5h20v15H3v-15z" fill="#E31D1C"/><path fill-rule="evenodd" clip-rule="evenodd" d="M3 2.75V4h20V2.75H3zm0 2.5V6.5h20V5.25H3zM3 9V7.75h20V9H3zm0 1.25v1.25h20v-1.25H3zM3 14v-1.25h20V14H3zm0 2.5v-1.25h20v1.25H3z" fill="#F7FCFF"/><path fill="#2E42A5" d="M3 1.5h11.25v8.75H3z"/><path fill-rule="evenodd" clip-rule="evenodd" d="M4.3 4.217l.662-.461.514.37h-.29l.588.52-.2.73h-.31l-.303-.67-.257.67h-.769l.589.52-.224.821.662-.461.514.37h-.29l.588.52-.2.73h-.31l-.303-.67-.257.67h-.769l.589.52-.224.821.662-.461.641.461-.199-.82.515-.521H5.68l.531-.37.514.37h-.29l.588.52-.224.821.662-.461.641.461-.199-.82.515-.521H8.18l.531-.37.514.37h-.29l.588.52-.224.821.662-.461.641.461-.199-.82.515-.521h-.238l.531-.37.514.37h-.29l.588.52-.224.821.662-.461.641.461-.199-.82.515-.521h-.655l-.303-.67-.257.67h-.373l-.177-.73.515-.52h-.238l.531-.37.641.461-.199-.82.515-.521h-.655l-.303-.67-.257.67h-.373l-.177-.73.515-.52h-.238l.531-.37.641.461-.199-.82.515-.521h-.655l-.303-.67-.257.67h-.769l.589.52-.2.73h-.31l-.303-.67-.257.67h-.373l-.177-.73.515-.52h-.655l-.303-.67-.257.67h-.769l.589.52-.2.73h-.31l-.303-.67-.257.67H8.08l-.177-.73.515-.52h-.655l-.303-.67-.257.67h-.769l.589.52-.2.73h-.31l-.303-.67-.257.67H5.58l-.177-.73.515-.52h-.655l-.303-.67-.257.67h-.769l.589.52-.224.821zm7.525 2.409l.199-.73-.589-.52h.291l-.514-.37-.53.37h.237l-.515.52.177.73h.373l.257-.67.303.67h.31zm-1.349 0l-.514-.37-.53.37h.237l-.515.52.177.73h.373l.257-.67.303.67h.31l.2-.73-.589-.52h.291zm-2.202.52l-.2.73h-.31l-.303-.67-.257.67H6.83l-.177-.73.515-.52H6.93l.531-.37.514.37h-.29l.588.52zm.18-.52H8.08l-.177-.73.515-.52H8.18l.531-.37.514.37h-.29l.588.52-.2.73h-.31l-.303-.67-.257.67zm-1.63 0l.2-.73-.589-.52h.291l-.514-.37-.53.37h.237l-.515.52.177.73h.373l.257-.67.303.67h.31zm3.95-1.98l-.2.73h-.31l-.303-.67-.257.67H9.33l-.177-.73.515-.52H9.43l.531-.37.514.37h-.29l.588.52zm-2.798-.52l-.514-.37-.53.37h.237l-.515.52.177.73h.373l.257-.67.303.67h.31l.2-.73-.589-.52h.291z" fill="#F7FCFF"/></g><path fill="url(#paint0_linear)" style="mix-blend-mode:overlay" d="M3 1.5h20v15H3z"/></g><path d="M4.5 2.5h17v-2h-17v2zM22 3v12h2V3h-2zm-.5 12.5h-17v2h17v-2zM4 15V3H2v12h2zm.5.5A.5.5 0 014 15H2a2.5 2.5 0 002.5 2.5v-2zM22 15a.5.5 0 01-.5.5v2A2.5 2.5 0 0024 15h-2zm-.5-12.5a.5.5 0 01.5.5h2A2.5 2.5 0 0021.5.5v2zm-17-2A2.5 2.5 0 002 3h2a.5.5 0 01.5-.5v-2z" fill="#000" fill-opacity=".1" style="mix-blend-mode:multiply"/></g><defs><linearGradient id="paint0_linear" x1="13" y1="1.5" x2="13" y2="16.5" gradientUnits="userSpaceOnUse"><stop stop-color="#fff" stop-opacity=".7"/><stop offset="1" stop-opacity=".3"/></linearGradient><clipPath id="clip0"><path d="M3 3a1.5 1.5 0 011.5-1.5h17A1.5 1.5 0 0123 3v12a1.5 1.5 0 01-1.5 1.5h-17A1.5 1.5 0 013 15V3z" fill="#fff"/></clipPath><filter id="filter0_d" x="0" y=".5" width="26" height="21" filterUnits="userSpaceOnUse" color-interpolation-filters="sRGB"><feFlood flood-opacity="0" result="BackgroundImageFix"/><feColorMatrix in="SourceAlpha" type="matrix" values="0 0 0 0 0 0 0 0 0 0 0 0 0 0 0 0 0 0 127 0" result="hardAlpha"/><feOffset dy="2"/><feGaussianBlur stdDeviation="1.5"/><feColorMatrix type="matrix" values="0 0 0 0 0 0 0 0 0 0 0 0 0 0 0 0 0 0 0.1 0"/><feBlend mode="normal" in2="BackgroundImageFix" result="effect1_dropShadow"/><feBlend mode="normal" in="SourceGraphic" in2="effect1_dropShadow" result="shape"/></filter></defs></svg>
